<svg width="1582" height="250" viewBox="0 0 1582 250" fill="none" xmlns="http://www.w3.org/2000/svg">
<path d="M1312.52 25.7587C1315.41 37.224 1306.5 49.3563 1292.61 52.8569C1278.72 56.3575 1265.12 49.9008 1262.23 38.4355C1259.34 26.9703 1268.26 14.838 1282.14 11.3374C1296.03 7.83678 1309.63 14.2935 1312.52 25.7587Z" stroke="black" stroke-width="19.4982" stroke-miterlimit="1.5" stroke-linecap="round" stroke-linejoin="round"/>
<path d="M0 247.041V25.7109H100.547C124.577 25.7109 145.762 30.3483 164.101 39.6231C182.44 48.6872 196.773 61.44 207.102 77.8817C217.431 94.3234 222.595 113.822 222.595 136.376C222.595 158.72 217.431 178.218 207.102 194.871C196.773 211.312 182.44 224.171 164.101 233.445C145.762 242.509 124.577 247.041 100.547 247.041H0ZM51.2222 204.989H98.0179C112.773 204.989 125.526 202.248 136.276 196.768C147.238 191.076 155.669 183.066 161.571 172.738C167.684 162.409 170.741 150.288 170.741 136.376C170.741 122.253 167.684 110.133 161.571 100.015C155.669 89.686 147.238 81.7813 136.276 76.3008C125.526 70.6094 112.773 67.7637 98.0179 67.7637H51.2222V204.989ZM357.345 247.041V213.842L354.183 206.57V147.127C354.183 136.587 350.916 128.366 344.382 122.464C338.058 116.562 328.256 113.611 314.976 113.611C305.912 113.611 296.954 115.086 288.1 118.037C279.458 120.778 272.08 124.572 265.967 129.42L248.261 94.9558C257.536 88.4213 268.708 83.3623 281.777 79.7788C294.846 76.1954 308.126 74.4037 321.616 74.4037C347.543 74.4037 367.674 80.5166 382.008 92.7425C396.342 104.968 403.508 124.045 403.508 149.972V247.041H357.345ZM305.491 249.571C292.211 249.571 280.828 247.358 271.343 242.931C261.857 238.294 254.585 232.075 249.526 224.276C244.467 216.477 241.937 207.729 241.937 198.033C241.937 187.915 244.361 179.061 249.209 171.473C254.268 163.884 262.173 157.982 272.923 153.766C283.674 149.34 297.691 147.127 314.976 147.127H360.191V175.899H320.351C308.758 175.899 300.748 177.797 296.321 181.591C292.105 185.385 289.998 190.128 289.998 195.819C289.998 202.143 292.422 207.202 297.27 210.996C302.329 214.58 309.18 216.371 317.822 216.371C326.043 216.371 333.42 214.474 339.955 210.68C346.49 206.675 351.232 200.878 354.183 193.29L361.772 216.055C358.188 227.016 351.654 235.343 342.168 241.034C332.683 246.725 320.457 249.571 305.491 249.571ZM512.969 249.571C492.943 249.571 477.345 244.512 466.173 234.394C455.001 224.065 449.415 208.783 449.415 188.547V39.307H498.74V187.915C498.74 195.081 500.637 200.667 504.431 204.672C508.226 208.467 513.39 210.364 519.925 210.364C527.724 210.364 534.364 208.256 539.844 204.04L553.122 238.821C548.065 242.404 541.952 245.144 534.785 247.041C527.829 248.728 520.557 249.571 512.969 249.571ZM423.172 118.67V80.7274H541.109V118.67H423.172ZM680.415 247.041V213.842L677.253 206.57V147.127C677.253 136.587 673.979 128.366 667.445 122.464C661.121 116.562 651.325 113.611 638.046 113.611C628.982 113.611 620.017 115.086 611.164 118.037C602.521 120.778 595.143 124.572 589.031 129.42L571.324 94.9558C580.599 88.4213 591.771 83.3623 604.84 79.7788C617.909 76.1954 631.189 74.4037 644.679 74.4037C670.607 74.4037 690.743 80.5166 705.077 92.7425C719.411 104.968 726.578 124.045 726.578 149.972V247.041H680.415ZM628.56 249.571C615.28 249.571 603.898 247.358 594.412 242.931C584.926 238.294 577.648 232.075 572.589 224.276C567.53 216.477 565 207.729 565 198.033C565 187.915 567.431 179.061 572.279 171.473C577.338 163.884 585.236 157.982 595.987 153.766C606.737 149.34 620.761 147.127 638.046 147.127H683.254V175.899H643.415C631.821 175.899 623.811 177.797 619.384 181.591C615.169 185.385 613.061 190.128 613.061 195.819C613.061 202.143 615.491 207.202 620.339 210.996C625.398 214.58 632.243 216.371 640.885 216.371C649.106 216.371 656.484 214.474 663.018 210.68C669.553 206.675 674.302 200.878 677.253 193.29L684.841 216.055C681.258 227.016 674.723 235.343 665.238 241.034C655.752 246.725 643.526 249.571 628.56 249.571Z" fill="black"/>
<path d="M815.791 247.038V67.4442H744.965V25.7076H937.839V67.4442H867.013V247.038H815.791ZM953.474 247.038V76.9298H1000.59V124.99L993.946 111.078C999.005 99.0628 1007.13 89.9988 1018.3 83.8859C1029.47 77.5621 1043.06 74.4003 1059.08 74.4003V119.931C1056.97 119.72 1055.08 119.615 1053.39 119.615C1051.7 119.404 1049.92 119.299 1048.02 119.299C1034.53 119.299 1023.57 123.198 1015.14 130.998C1006.92 138.586 1002.8 150.496 1002.8 166.727V247.038H953.474ZM1176.9 247.038V213.839L1173.74 206.566V147.123C1173.74 136.584 1170.47 128.363 1163.93 122.461C1157.61 116.558 1147.81 113.607 1134.53 113.607C1125.47 113.607 1116.5 115.083 1107.65 118.034C1099.01 120.774 1091.63 124.569 1085.52 129.417L1067.81 94.9524C1077.08 88.4179 1088.26 83.3589 1101.33 79.7755C1114.39 76.192 1127.67 74.4003 1141.17 74.4003C1167.09 74.4003 1187.23 80.5132 1201.56 92.7391C1215.9 104.965 1223.06 124.042 1223.06 149.969V247.038H1176.9ZM1125.05 249.568C1111.77 249.568 1100.38 247.354 1090.9 242.928C1081.41 238.29 1074.13 232.072 1069.07 224.273C1064.02 216.473 1061.49 207.726 1061.49 198.029C1061.49 187.911 1063.92 179.058 1068.76 171.47C1073.82 163.881 1081.72 157.979 1092.47 153.763C1103.22 149.336 1117.25 147.123 1134.53 147.123H1179.74V175.896H1139.9C1128.31 175.896 1120.3 177.793 1115.87 181.587C1111.65 185.382 1109.55 190.125 1109.55 195.816C1109.55 202.14 1111.98 207.199 1116.82 210.993C1121.88 214.576 1128.73 216.368 1137.37 216.368C1145.59 216.368 1152.97 214.471 1159.5 210.677C1166.04 206.672 1170.79 200.875 1173.74 193.286L1181.33 216.052C1177.74 227.013 1171.21 235.339 1161.72 241.031C1152.24 246.722 1140.01 249.568 1125.05 249.568ZM1262.95 247.038V76.9298H1312.28V247.038H1262.95ZM1353.32 247.038V12.4277H1402.65V247.038H1353.32ZM1500.91 249.568C1486.37 249.568 1472.34 247.881 1458.85 244.509C1445.57 240.925 1435.03 236.499 1427.23 231.229L1443.67 195.816C1451.47 200.664 1460.65 204.669 1471.19 207.831C1481.94 210.782 1492.48 212.258 1502.81 212.258C1514.19 212.258 1522.2 210.887 1526.84 208.147C1531.69 205.407 1534.1 201.613 1534.1 196.764C1534.1 192.759 1532.21 189.808 1528.41 187.911C1524.83 185.803 1519.98 184.222 1513.87 183.168C1507.76 182.114 1501.01 181.061 1493.63 180.007C1486.47 178.953 1479.2 177.582 1471.82 175.896C1464.44 173.999 1457.7 171.259 1451.59 167.675C1445.47 164.092 1440.51 159.244 1436.72 153.131C1433.14 147.018 1431.35 139.113 1431.35 129.417C1431.35 118.666 1434.4 109.181 1440.51 100.96C1446.84 92.7391 1455.9 86.31 1467.71 81.6726C1479.51 76.8244 1493.63 74.4003 1510.07 74.4003C1521.67 74.4003 1533.47 75.665 1545.49 78.1945C1557.5 80.724 1567.52 84.4129 1575.53 89.2611L1559.09 124.358C1550.87 119.51 1542.54 116.242 1534.1 114.556C1525.88 112.659 1517.87 111.71 1510.07 111.71C1499.11 111.71 1491.1 113.186 1486.04 116.137C1480.99 119.088 1478.46 122.882 1478.46 127.52C1478.46 131.735 1480.25 134.897 1483.84 137.005C1487.63 139.113 1492.58 140.799 1498.69 142.064C1504.8 143.329 1511.45 144.488 1518.62 145.542C1526 146.385 1533.37 147.756 1540.75 149.653C1548.13 151.55 1554.76 154.29 1560.66 157.874C1566.78 161.246 1571.74 165.989 1575.53 172.102C1579.33 178.004 1581.22 185.803 1581.22 195.5C1581.22 206.039 1578.06 215.419 1571.74 223.64C1565.41 231.65 1556.24 237.974 1544.22 242.611C1532.42 247.249 1517.99 249.568 1500.91 249.568Z" fill="#0BA5EC"/>
</svg>
