<?xml version="1.0" encoding="utf-8"?>
<!-- Generator: Adobe Illustrator 25.0.0, SVG Export Plug-In . SVG Version: 6.00 Build 0)  -->
<svg version="1.1" id="Layer_1" xmlns="http://www.w3.org/2000/svg" xmlns:xlink="http://www.w3.org/1999/xlink" x="0px" y="0px"
	 viewBox="0 0 360 360" style="enable-background:new 0 0 360 360;" xml:space="preserve">
<style type="text/css">
	.st0{fill:#FFFFFF;}
	.st1{fill:#00AEEF;}
</style>
<g>
	<path class="st0" d="M57.9,158.11h23.91c6.63,0,11.71,1.77,15.24,5.3c2.99,2.99,4.48,6.98,4.48,11.96v0.15
		c0,4.23-1.03,7.69-3.1,10.35c-2.07,2.67-4.77,4.62-8.11,5.87l12.78,18.68H89.66l-11.21-16.74H78.3h-8.89v16.74H57.9V158.11z
		 M81.07,183.52c2.84,0,5.02-0.67,6.54-2.02c1.52-1.34,2.28-3.14,2.28-5.38v-0.15c0-2.49-0.8-4.36-2.39-5.61
		c-1.59-1.24-3.81-1.87-6.65-1.87H69.41v15.02H81.07z"/>
	<path class="st0" d="M111.93,158.11h11.51v22.87l21.22-22.87h13.9l-21.3,22.19l22.27,30.12h-13.82l-16.22-22.27l-6.05,6.28v15.99
		h-11.51V158.11z"/>
	<path class="st0" d="M234.19,211.17c-3.99,0-7.9-0.68-11.73-2.06c-3.84-1.37-7.32-3.47-10.46-6.31l6.8-8.15
		c2.39,1.94,4.84,3.49,7.36,4.63c2.51,1.15,5.27,1.72,8.26,1.72c2.39,0,4.25-0.43,5.57-1.31c1.32-0.87,1.98-2.08,1.98-3.62v-0.15
		c0-0.75-0.14-1.41-0.41-1.98c-0.28-0.57-0.8-1.11-1.57-1.61c-0.77-0.5-1.85-1-3.22-1.49c-1.37-0.5-3.16-1.02-5.36-1.57
		c-2.65-0.65-5.05-1.37-7.19-2.17c-2.15-0.8-3.97-1.78-5.47-2.95c-1.5-1.17-2.66-2.63-3.48-4.37s-1.24-3.91-1.24-6.5v-0.15
		c0-2.39,0.45-4.55,1.34-6.46c0.89-1.92,2.14-3.57,3.75-4.97c1.61-1.39,3.53-2.47,5.76-3.21c2.23-0.75,4.7-1.12,7.39-1.12
		c3.84,0,7.36,0.57,10.57,1.72c3.21,1.15,6.16,2.79,8.85,4.93l-5.98,8.67c-2.34-1.59-4.63-2.85-6.87-3.77
		c-2.24-0.92-4.48-1.38-6.73-1.38c-2.24,0-3.92,0.44-5.04,1.31c-1.12,0.87-1.68,1.96-1.68,3.25v0.15c0,0.85,0.16,1.58,0.49,2.2
		c0.33,0.62,0.91,1.18,1.76,1.68c0.85,0.5,2.01,0.97,3.48,1.42c1.47,0.45,3.33,0.97,5.58,1.57c2.65,0.7,5.01,1.48,7.08,2.35
		c2.07,0.87,3.82,1.92,5.24,3.14c1.42,1.22,2.5,2.65,3.22,4.3s1.09,3.61,1.09,5.9v0.15c0,2.59-0.47,4.89-1.41,6.91
		c-0.94,2.02-2.25,3.71-3.94,5.08c-1.68,1.37-3.69,2.42-6.02,3.14C239.62,210.81,237.03,211.17,234.19,211.17z"/>
	<path class="st0" d="M274.07,168.72h-15.92v-10.61h43.34v10.61h-15.92v41.7h-11.51V168.72z"/>
	<g>
		<polygon class="st0" points="175.69,179.08 172.04,169.24 159.34,169.24 163.28,179.08 		"/>
		<polygon class="st1" points="203.83,149.32 181.36,194.95 177.71,185.13 165.82,185.13 176.13,210.79 186.29,210.79 
			216.23,149.32 		"/>
	</g>
</g>
</svg>
