<svg width="1582" height="257" viewBox="0 0 1582 257" fill="none" xmlns="http://www.w3.org/2000/svg">
<path d="M1312.52 25.7587C1315.41 37.224 1306.5 49.3563 1292.61 52.8569C1278.72 56.3575 1265.12 49.9008 1262.23 38.4355C1259.34 26.9703 1268.26 14.838 1282.14 11.3374C1296.03 7.83678 1309.63 14.2935 1312.52 25.7587Z" stroke="white" stroke-width="19.4982" stroke-miterlimit="1.5" stroke-linecap="round" stroke-linejoin="round"/>
<path d="M0 253.69V32.3594H100.547C124.577 32.3594 145.762 36.9968 164.101 46.2716C182.44 55.3356 196.773 68.0884 207.102 84.5301C217.431 100.972 222.595 120.47 222.595 143.025C222.595 165.368 217.431 184.867 207.102 201.519C196.773 217.961 182.44 230.819 164.101 240.094C145.762 249.158 124.577 253.69 100.547 253.69H0ZM51.2222 211.637H98.0179C112.773 211.637 125.526 208.897 136.276 203.416C147.238 197.725 155.669 189.715 161.571 179.386C167.684 169.057 170.741 156.937 170.741 143.025C170.741 128.902 167.684 116.781 161.571 106.663C155.669 96.3344 147.238 88.4298 136.276 82.9492C125.526 77.2579 112.773 74.4122 98.0179 74.4122H51.2222V211.637ZM357.345 253.69V220.49L354.183 213.218V153.775C354.183 143.235 350.916 135.015 344.382 129.112C338.058 123.21 328.256 120.259 314.976 120.259C305.912 120.259 296.954 121.735 288.1 124.686C279.458 127.426 272.08 131.22 265.967 136.069L248.261 101.604C257.536 95.0697 268.708 90.0107 281.777 86.4273C294.846 82.8438 308.126 81.0521 321.616 81.0521C347.543 81.0521 367.674 87.165 382.008 99.3909C396.342 111.617 403.508 130.693 403.508 156.621V253.69H357.345ZM305.491 256.219C292.211 256.219 280.828 254.006 271.343 249.579C261.857 244.942 254.585 238.724 249.526 230.924C244.467 223.125 241.937 214.377 241.937 204.681C241.937 194.563 244.361 185.71 249.209 178.121C254.268 170.533 262.173 164.631 272.923 160.415C283.674 155.988 297.691 153.775 314.976 153.775H360.191V182.548H320.351C308.758 182.548 300.748 184.445 296.321 188.239C292.105 192.034 289.998 196.776 289.998 202.468C289.998 208.791 292.422 213.85 297.27 217.645C302.329 221.228 309.18 223.02 317.822 223.02C326.043 223.02 333.42 221.123 339.955 217.328C346.49 213.323 351.232 207.527 354.183 199.938L361.772 222.704C358.188 233.665 351.654 241.991 342.168 247.682C332.683 253.374 320.457 256.219 305.491 256.219ZM512.969 256.219C492.943 256.219 477.345 251.16 466.173 241.042C455.001 230.714 449.415 215.431 449.415 195.195V45.9554H498.74V194.563C498.74 201.73 500.637 207.316 504.431 211.321C508.226 215.115 513.39 217.012 519.925 217.012C527.724 217.012 534.364 214.904 539.844 210.689L553.122 245.469C548.065 249.052 541.952 251.793 534.785 253.69C527.829 255.376 520.557 256.219 512.969 256.219ZM423.172 125.318V87.3758H541.109V125.318H423.172ZM680.415 253.69V220.49L677.253 213.218V153.775C677.253 143.235 673.979 135.015 667.445 129.112C661.121 123.21 651.325 120.259 638.046 120.259C628.982 120.259 620.017 121.735 611.164 124.686C602.521 127.426 595.143 131.22 589.031 136.069L571.324 101.604C580.599 95.0697 591.771 90.0107 604.84 86.4273C617.909 82.8438 631.189 81.0521 644.679 81.0521C670.607 81.0521 690.743 87.165 705.077 99.3909C719.411 111.617 726.578 130.693 726.578 156.621V253.69H680.415ZM628.56 256.219C615.28 256.219 603.898 254.006 594.412 249.579C584.926 244.942 577.648 238.724 572.589 230.924C567.53 223.125 565 214.377 565 204.681C565 194.563 567.431 185.71 572.279 178.121C577.338 170.533 585.236 164.631 595.987 160.415C606.737 155.988 620.761 153.775 638.046 153.775H683.254V182.548H643.415C631.821 182.548 623.811 184.445 619.384 188.239C615.169 192.034 613.061 196.776 613.061 202.468C613.061 208.791 615.491 213.85 620.339 217.645C625.398 221.228 632.243 223.02 640.885 223.02C649.106 223.02 656.484 221.123 663.018 217.328C669.553 213.323 674.302 207.527 677.253 199.938L684.841 222.704C681.258 233.665 674.723 241.991 665.238 247.682C655.752 253.374 643.526 256.219 628.56 256.219Z" fill="white"/>
<path d="M815.791 253.687V74.0926H744.965V32.356H937.839V74.0926H867.013V253.687H815.791ZM953.474 253.687V83.5782H1000.59V131.639L993.946 117.726C999.005 105.711 1007.13 96.6473 1018.3 90.5343C1029.47 84.2106 1043.06 81.0487 1059.08 81.0487V126.58C1056.97 126.369 1055.08 126.263 1053.39 126.263C1051.7 126.053 1049.92 125.947 1048.02 125.947C1034.53 125.947 1023.57 129.847 1015.14 137.646C1006.92 145.235 1002.8 157.144 1002.8 173.375V253.687H953.474ZM1176.9 253.687V220.487L1173.74 213.215V153.772C1173.74 143.232 1170.47 135.011 1163.93 129.109C1157.61 123.207 1147.81 120.256 1134.53 120.256C1125.47 120.256 1116.5 121.731 1107.65 124.682C1099.01 127.423 1091.63 131.217 1085.52 136.065L1067.81 101.601C1077.08 95.0663 1088.26 90.0073 1101.33 86.4239C1114.39 82.8404 1127.67 81.0487 1141.17 81.0487C1167.09 81.0487 1187.23 87.1617 1201.56 99.3875C1215.9 111.613 1223.06 130.69 1223.06 156.617V253.687H1176.9ZM1125.05 256.216C1111.77 256.216 1100.38 254.003 1090.9 249.576C1081.41 244.939 1074.13 238.72 1069.07 230.921C1064.02 223.122 1061.49 214.374 1061.49 204.678C1061.49 194.56 1063.92 185.706 1068.76 178.118C1073.82 170.529 1081.72 164.627 1092.47 160.412C1103.22 155.985 1117.25 153.772 1134.53 153.772H1179.74V182.545H1139.9C1128.31 182.545 1120.3 184.442 1115.87 188.236C1111.65 192.03 1109.55 196.773 1109.55 202.464C1109.55 208.788 1111.98 213.847 1116.82 217.641C1121.88 221.225 1128.73 223.016 1137.37 223.016C1145.59 223.016 1152.97 221.119 1159.5 217.325C1166.04 213.32 1170.79 207.523 1173.74 199.935L1181.33 222.7C1177.74 233.661 1171.21 241.988 1161.72 247.679C1152.24 253.37 1140.01 256.216 1125.05 256.216ZM1262.95 253.687V83.5782H1312.28V253.687H1262.95ZM1353.32 253.687V19.0762H1402.65V253.687H1353.32ZM1500.91 256.216C1486.37 256.216 1472.34 254.53 1458.85 251.157C1445.57 247.574 1435.03 243.147 1427.23 237.877L1443.67 202.464C1451.47 207.313 1460.65 211.318 1471.19 214.479C1481.94 217.43 1492.48 218.906 1502.81 218.906C1514.19 218.906 1522.2 217.536 1526.84 214.796C1531.69 212.055 1534.1 208.261 1534.1 203.413C1534.1 199.408 1532.21 196.457 1528.41 194.56C1524.83 192.452 1519.98 190.871 1513.87 189.817C1507.76 188.763 1501.01 187.709 1493.63 186.655C1486.47 185.601 1479.2 184.231 1471.82 182.545C1464.44 180.647 1457.7 177.907 1451.59 174.324C1445.47 170.74 1440.51 165.892 1436.72 159.779C1433.14 153.666 1431.35 145.762 1431.35 136.065C1431.35 125.315 1434.4 115.829 1440.51 107.608C1446.84 99.3875 1455.9 92.9584 1467.71 88.321C1479.51 83.4728 1493.63 81.0487 1510.07 81.0487C1521.67 81.0487 1533.47 82.3135 1545.49 84.843C1557.5 87.3725 1567.52 91.0613 1575.53 95.9095L1559.09 131.006C1550.87 126.158 1542.54 122.891 1534.1 121.204C1525.88 119.307 1517.87 118.359 1510.07 118.359C1499.11 118.359 1491.1 119.834 1486.04 122.785C1480.99 125.736 1478.46 129.531 1478.46 134.168C1478.46 138.384 1480.25 141.546 1483.84 143.654C1487.63 145.762 1492.58 147.448 1498.69 148.713C1504.8 149.977 1511.45 151.137 1518.62 152.191C1526 153.034 1533.37 154.404 1540.75 156.301C1548.13 158.198 1554.76 160.938 1560.66 164.522C1566.78 167.895 1571.74 172.637 1575.53 178.75C1579.33 184.652 1581.22 192.452 1581.22 202.148C1581.22 212.688 1578.06 222.068 1571.74 230.289C1565.41 238.299 1556.24 244.623 1544.22 249.26C1532.42 253.897 1517.99 256.216 1500.91 256.216Z" fill="#36BFFA"/>
</svg>
