<?xml version="1.0" encoding="utf-8"?>
<!-- Generator: Adobe Illustrator 25.4.1, SVG Export Plug-In . SVG Version: 6.00 Build 0)  -->
<svg version="1.1" id="Layer_1" xmlns="http://www.w3.org/2000/svg" xmlns:xlink="http://www.w3.org/1999/xlink" x="0px" y="0px"
	 viewBox="0 0 360 360" style="enable-background:new 0 0 360 360;" xml:space="preserve">
<style type="text/css">
	.st0{fill:#FFFFFF;}
	.st1{fill:#00AEEF;}
</style>
<g>
	<path class="st0" d="M57.9,158.11h23.91c6.63,0,11.71,1.77,15.24,5.3c2.99,2.99,4.48,6.98,4.48,11.96v0.15
		c0,4.23-1.03,7.69-3.1,10.35c-2.07,2.67-4.77,4.62-8.11,5.87l12.78,18.68H89.66l-11.21-16.74H78.3h-8.89v16.74H57.9V158.11z
		 M81.07,183.52c2.84,0,5.02-0.67,6.54-2.02c1.52-1.34,2.28-3.14,2.28-5.38v-0.15c0-2.49-0.8-4.36-2.39-5.61
		c-1.59-1.24-3.81-1.87-6.65-1.87H69.41v15.02H81.07z"/>
	<path class="st0" d="M111.93,158.11h11.51v22.87l21.22-22.87h13.9l-21.3,22.19l22.27,30.12h-13.82l-16.22-22.27l-6.05,6.28v15.99
		h-11.51V158.11z"/>
	<path class="st0" d="M234.19,211.17c-3.99,0-7.9-0.68-11.73-2.06c-3.84-1.37-7.32-3.47-10.46-6.31l6.8-8.15
		c2.39,1.94,4.84,3.49,7.36,4.63c2.51,1.15,5.27,1.72,8.26,1.72c2.39,0,4.25-0.43,5.57-1.31c1.32-0.87,1.98-2.08,1.98-3.62v-0.15
		c0-0.75-0.14-1.41-0.41-1.98c-0.28-0.57-0.8-1.11-1.57-1.61c-0.77-0.5-1.85-1-3.22-1.49c-1.37-0.5-3.16-1.02-5.36-1.57
		c-2.65-0.65-5.05-1.37-7.19-2.17c-2.15-0.8-3.97-1.78-5.47-2.95c-1.5-1.17-2.66-2.63-3.48-4.37s-1.24-3.91-1.24-6.5v-0.15
		c0-2.39,0.45-4.55,1.34-6.46c0.89-1.92,2.14-3.57,3.75-4.97c1.61-1.39,3.53-2.47,5.76-3.21c2.23-0.75,4.7-1.12,7.39-1.12
		c3.84,0,7.36,0.57,10.57,1.72c3.21,1.15,6.16,2.79,8.85,4.93l-5.98,8.67c-2.34-1.59-4.63-2.85-6.87-3.77
		c-2.24-0.92-4.48-1.38-6.73-1.38c-2.24,0-3.92,0.44-5.04,1.31c-1.12,0.87-1.68,1.96-1.68,3.25v0.15c0,0.85,0.16,1.58,0.49,2.2
		c0.33,0.62,0.91,1.18,1.76,1.68c0.85,0.5,2.01,0.97,3.48,1.42c1.47,0.45,3.33,0.97,5.58,1.57c2.65,0.7,5.01,1.48,7.08,2.35
		c2.07,0.87,3.82,1.92,5.24,3.14c1.42,1.22,2.5,2.65,3.22,4.3s1.09,3.61,1.09,5.9v0.15c0,2.59-0.47,4.89-1.41,6.91
		c-0.94,2.02-2.25,3.71-3.94,5.08c-1.68,1.37-3.69,2.42-6.02,3.14C239.62,210.81,237.03,211.17,234.19,211.17z"/>
	<path class="st0" d="M274.07,168.72h-15.92v-10.61h43.34v10.61h-15.92v41.7h-11.51V168.72z"/>
	<g>
		<polygon class="st0" points="175.69,179.08 172.04,169.24 159.34,169.24 163.28,179.08 		"/>
		<polygon class="st1" points="203.83,149.32 181.36,194.95 177.71,185.13 165.82,185.13 176.13,210.79 186.29,210.79 
			216.23,149.32 		"/>
	</g>
</g>
<g>
	<path class="st1" d="M111.65,232.93l9.51-12.1h-9.2v-1.49h11.47v1.11l-9.53,12.1h9.53v1.49h-11.78V232.93z"/>
	<path class="st1" d="M126.96,229.28c0.06,0.57,0.2,1.08,0.42,1.53c0.22,0.45,0.51,0.83,0.86,1.13c0.35,0.31,0.74,0.54,1.18,0.7
		c0.43,0.16,0.89,0.24,1.37,0.24c0.76,0,1.4-0.14,1.94-0.42c0.54-0.28,1.03-0.65,1.48-1.11l1.01,0.9c-0.55,0.62-1.17,1.11-1.87,1.48
		c-0.7,0.37-1.57,0.56-2.6,0.56c-0.74,0-1.44-0.14-2.1-0.41c-0.66-0.27-1.23-0.66-1.72-1.16c-0.49-0.5-0.88-1.1-1.17-1.8
		c-0.29-0.7-0.43-1.47-0.43-2.31c0-0.78,0.13-1.52,0.39-2.22c0.26-0.69,0.62-1.29,1.08-1.81s1.01-0.91,1.65-1.21
		c0.64-0.29,1.33-0.44,2.09-0.44c0.8,0,1.51,0.15,2.14,0.45c0.63,0.3,1.16,0.71,1.6,1.23c0.43,0.52,0.76,1.13,0.99,1.83
		s0.34,1.45,0.34,2.25c0,0.07,0,0.15,0,0.24c0,0.09-0.01,0.2-0.02,0.33H126.96z M133.95,227.95c-0.04-0.49-0.15-0.95-0.31-1.39
		s-0.4-0.82-0.68-1.16c-0.29-0.33-0.64-0.6-1.05-0.79s-0.89-0.29-1.42-0.29c-0.46,0-0.9,0.09-1.3,0.27
		c-0.41,0.18-0.76,0.43-1.07,0.76s-0.56,0.71-0.77,1.16c-0.2,0.45-0.33,0.93-0.39,1.44H133.95z"/>
	<path class="st1" d="M138.42,223.18h1.62v2.83c0.2-0.45,0.44-0.86,0.74-1.24c0.29-0.38,0.63-0.7,1.01-0.98
		c0.38-0.27,0.79-0.48,1.24-0.62c0.45-0.14,0.93-0.2,1.45-0.19v1.74h-0.13c-0.59,0-1.14,0.1-1.67,0.31s-0.98,0.53-1.38,0.95
		c-0.39,0.42-0.7,0.94-0.92,1.56s-0.34,1.34-0.34,2.15v4.33h-1.62V223.18z"/>
	<path class="st1" d="M151.41,234.29c-0.81,0-1.56-0.15-2.25-0.45c-0.69-0.3-1.28-0.71-1.79-1.22c-0.5-0.51-0.9-1.11-1.18-1.78
		c-0.28-0.68-0.42-1.4-0.42-2.17v-0.04c0-0.77,0.14-1.5,0.42-2.18c0.28-0.69,0.67-1.29,1.18-1.81c0.5-0.52,1.1-0.93,1.8-1.23
		c0.69-0.3,1.45-0.45,2.28-0.45c0.81,0,1.56,0.15,2.26,0.45c0.69,0.3,1.29,0.71,1.8,1.22c0.5,0.51,0.9,1.11,1.18,1.79
		c0.28,0.68,0.42,1.4,0.42,2.17v0.04c0,0.77-0.14,1.5-0.43,2.18c-0.29,0.69-0.68,1.29-1.19,1.81s-1.11,0.93-1.81,1.23
		S152.22,234.29,151.41,234.29z M151.45,232.84c0.59,0,1.13-0.11,1.62-0.34c0.49-0.22,0.91-0.52,1.26-0.9
		c0.35-0.38,0.62-0.82,0.82-1.32c0.2-0.5,0.29-1.04,0.29-1.62v-0.04c0-0.59-0.1-1.14-0.3-1.65c-0.2-0.51-0.49-0.96-0.85-1.34
		c-0.36-0.38-0.79-0.69-1.28-0.91c-0.49-0.22-1.02-0.34-1.6-0.34c-0.59,0-1.13,0.11-1.62,0.34c-0.49,0.22-0.91,0.53-1.25,0.9
		c-0.34,0.38-0.61,0.82-0.81,1.33c-0.2,0.51-0.29,1.05-0.29,1.63v0.04c0,0.59,0.1,1.14,0.3,1.65c0.2,0.51,0.48,0.96,0.84,1.33
		c0.36,0.38,0.78,0.68,1.27,0.9C150.35,232.73,150.88,232.84,151.45,232.84z"/>
	<path class="st1" d="M170.48,220.88h-4.94v-1.53h11.53v1.53h-4.93v13.17h-1.66V220.88z"/>
	<path class="st1" d="M177.92,223.18h1.62v2.83c0.2-0.45,0.44-0.86,0.74-1.24s0.63-0.7,1.01-0.98c0.38-0.27,0.79-0.48,1.24-0.62
		c0.45-0.14,0.93-0.2,1.45-0.19v1.74h-0.13c-0.59,0-1.14,0.1-1.67,0.31s-0.98,0.53-1.38,0.95c-0.39,0.42-0.7,0.94-0.92,1.56
		s-0.34,1.34-0.34,2.15v4.33h-1.62V223.18z"/>
	<path class="st1" d="M190.31,234.27c-0.66,0-1.24-0.11-1.75-0.32c-0.51-0.21-0.95-0.51-1.3-0.89c-0.36-0.38-0.63-0.84-0.82-1.38
		c-0.19-0.53-0.28-1.12-0.28-1.76v-6.74h1.62v6.33c0,1.01,0.26,1.8,0.78,2.39c0.52,0.59,1.26,0.88,2.23,0.88
		c0.46,0,0.89-0.08,1.29-0.24c0.4-0.16,0.74-0.39,1.03-0.69s0.51-0.66,0.68-1.08s0.25-0.88,0.25-1.38v-6.2h1.6v10.86h-1.6v-1.89
		c-0.36,0.59-0.84,1.09-1.43,1.5S191.25,234.27,190.31,234.27z"/>
	<path class="st1" d="M202.73,234.25c-0.79,0-1.58-0.14-2.37-0.43c-0.8-0.29-1.51-0.67-2.12-1.17l0.82-1.16
		c0.59,0.45,1.2,0.79,1.84,1.03c0.64,0.24,1.28,0.36,1.92,0.36c0.66,0,1.2-0.15,1.62-0.46c0.42-0.31,0.63-0.73,0.63-1.26v-0.04
		c0-0.27-0.07-0.5-0.22-0.69c-0.15-0.2-0.35-0.37-0.6-0.51c-0.25-0.15-0.54-0.28-0.87-0.39s-0.67-0.22-1.02-0.32
		c-0.42-0.13-0.84-0.26-1.27-0.41c-0.43-0.15-0.81-0.33-1.15-0.56c-0.34-0.22-0.62-0.5-0.84-0.84c-0.22-0.34-0.33-0.76-0.33-1.26
		v-0.04c0-0.46,0.09-0.88,0.27-1.27c0.18-0.38,0.44-0.71,0.77-0.99c0.33-0.27,0.72-0.48,1.18-0.63c0.46-0.15,0.95-0.22,1.48-0.22
		c0.67,0,1.35,0.11,2.04,0.33c0.69,0.22,1.31,0.51,1.87,0.87l-0.74,1.22c-0.5-0.32-1.03-0.58-1.58-0.77
		c-0.55-0.19-1.1-0.28-1.63-0.28c-0.64,0-1.16,0.15-1.53,0.45s-0.57,0.68-0.57,1.12v0.04c0,0.25,0.08,0.47,0.23,0.66
		c0.15,0.19,0.36,0.35,0.62,0.49c0.26,0.14,0.56,0.27,0.89,0.38c0.34,0.11,0.69,0.22,1.05,0.34c0.42,0.13,0.84,0.27,1.25,0.42
		c0.41,0.15,0.79,0.35,1.12,0.59c0.34,0.24,0.6,0.52,0.81,0.86s0.3,0.75,0.3,1.24V231c0,0.52-0.1,0.98-0.3,1.38
		c-0.2,0.4-0.48,0.74-0.82,1.02c-0.34,0.28-0.75,0.49-1.22,0.64C203.79,234.18,203.28,234.25,202.73,234.25z"/>
	<path class="st1" d="M213.13,234.23c-0.43,0-0.84-0.06-1.22-0.17c-0.38-0.11-0.7-0.29-0.98-0.54c-0.27-0.25-0.49-0.56-0.64-0.96
		c-0.15-0.39-0.23-0.86-0.23-1.41v-6.55h-1.51v-1.43h1.51v-3.28h1.62v3.28h3.44v1.43h-3.44v6.33c0,0.67,0.17,1.14,0.5,1.4
		c0.34,0.27,0.78,0.4,1.32,0.4c0.28,0,0.54-0.03,0.79-0.08c0.25-0.05,0.51-0.14,0.79-0.28v1.39c-0.28,0.15-0.58,0.27-0.89,0.35
		C213.88,234.19,213.52,234.23,213.13,234.23z"/>
	<path class="st0" d="M224.55,219.34h10.56v1.53h-8.9v5.27h7.96v1.49h-7.96v6.41h-1.66V219.34z"/>
	<path class="st0" d="M240.25,234.27c-0.5,0-1-0.07-1.49-0.21c-0.49-0.14-0.92-0.35-1.3-0.64s-0.68-0.64-0.91-1.06
		c-0.23-0.42-0.35-0.91-0.35-1.47v-0.04c0-0.59,0.11-1.1,0.34-1.54c0.22-0.44,0.54-0.81,0.96-1.1s0.9-0.52,1.47-0.67
		c0.57-0.15,1.19-0.23,1.88-0.23c0.7,0,1.31,0.04,1.82,0.13s1.01,0.2,1.5,0.34v-0.33c0-0.96-0.28-1.69-0.84-2.18
		c-0.56-0.49-1.35-0.74-2.37-0.74c-0.64,0-1.23,0.07-1.75,0.21c-0.53,0.14-1.04,0.33-1.54,0.57l-0.48-1.33
		c0.6-0.28,1.21-0.51,1.83-0.68c0.62-0.17,1.32-0.26,2.12-0.26c1.54,0,2.71,0.4,3.51,1.2c0.76,0.76,1.13,1.82,1.13,3.19v6.64h-1.6
		v-1.62c-0.38,0.49-0.89,0.92-1.52,1.29C241.99,234.09,241.2,234.27,240.25,234.27z M240.57,232.95c0.5,0,0.97-0.07,1.4-0.21
		s0.81-0.34,1.14-0.6s0.59-0.56,0.77-0.92c0.19-0.35,0.28-0.75,0.28-1.18v-1c-0.4-0.11-0.87-0.22-1.38-0.31
		c-0.52-0.1-1.11-0.15-1.78-0.15c-1,0-1.78,0.2-2.33,0.6c-0.55,0.4-0.83,0.92-0.83,1.58v0.04c0,0.33,0.07,0.64,0.22,0.91
		c0.15,0.27,0.34,0.5,0.6,0.68c0.25,0.18,0.54,0.32,0.87,0.42S240.21,232.95,240.57,232.95z"/>
	<path class="st0" d="M254.92,234.27c-0.5,0-0.97-0.06-1.39-0.19s-0.8-0.29-1.13-0.5c-0.34-0.21-0.64-0.46-0.91-0.74
		c-0.27-0.28-0.51-0.57-0.72-0.88v2.08h-1.62v-15.33h1.62v6.66c0.22-0.32,0.47-0.63,0.75-0.92c0.27-0.29,0.58-0.55,0.91-0.77
		s0.71-0.39,1.12-0.53c0.41-0.13,0.87-0.2,1.38-0.2c0.64,0,1.28,0.13,1.9,0.38s1.18,0.62,1.67,1.1c0.49,0.48,0.88,1.07,1.18,1.76
		c0.29,0.69,0.44,1.49,0.44,2.38v0.04c0,0.88-0.15,1.67-0.44,2.37s-0.68,1.29-1.17,1.77c-0.48,0.48-1.04,0.85-1.66,1.11
		C256.22,234.14,255.58,234.27,254.92,234.27z M254.62,232.82c0.52,0,1.01-0.09,1.48-0.28c0.47-0.19,0.88-0.46,1.22-0.82
		c0.34-0.36,0.62-0.79,0.82-1.31c0.2-0.52,0.3-1.11,0.3-1.76v-0.04c0-0.64-0.1-1.22-0.3-1.74c-0.2-0.52-0.48-0.96-0.83-1.32
		c-0.35-0.36-0.76-0.64-1.22-0.84s-0.95-0.29-1.47-0.29c-0.5,0-0.99,0.1-1.46,0.3c-0.47,0.2-0.89,0.49-1.26,0.86
		s-0.67,0.81-0.88,1.32s-0.33,1.07-0.33,1.69v0.04c0,0.63,0.11,1.2,0.33,1.72c0.22,0.52,0.51,0.96,0.88,1.32s0.79,0.65,1.26,0.85
		C253.63,232.72,254.12,232.82,254.62,232.82z"/>
	<path class="st0" d="M263,223.18h1.62v2.83c0.2-0.45,0.44-0.86,0.74-1.24s0.63-0.7,1.01-0.98c0.38-0.27,0.79-0.48,1.24-0.62
		c0.45-0.14,0.93-0.2,1.45-0.19v1.74h-0.13c-0.59,0-1.14,0.1-1.67,0.31s-0.98,0.53-1.38,0.95c-0.39,0.42-0.7,0.94-0.92,1.56
		s-0.34,1.34-0.34,2.15v4.33H263V223.18z"/>
	<path class="st0" d="M271.29,219.03h1.85v1.78h-1.85V219.03z M271.4,223.18h1.62v10.86h-1.62V223.18z"/>
	<path class="st0" d="M281.48,234.29c-0.8,0-1.54-0.15-2.22-0.45s-1.27-0.71-1.76-1.22c-0.5-0.51-0.89-1.11-1.17-1.79
		s-0.42-1.41-0.42-2.16v-0.04c0-0.77,0.14-1.5,0.42-2.18c0.28-0.69,0.67-1.29,1.17-1.81c0.5-0.52,1.08-0.93,1.76-1.23
		c0.68-0.3,1.42-0.45,2.22-0.45c0.52,0,0.99,0.05,1.41,0.15c0.42,0.1,0.8,0.24,1.15,0.41s0.67,0.38,0.97,0.62
		c0.29,0.24,0.57,0.49,0.82,0.76l-1.07,1.13c-0.43-0.45-0.91-0.83-1.42-1.15c-0.51-0.32-1.14-0.48-1.88-0.48
		c-0.55,0-1.06,0.11-1.53,0.33c-0.48,0.22-0.89,0.51-1.24,0.89c-0.35,0.38-0.62,0.82-0.82,1.33s-0.29,1.06-0.29,1.65v0.04
		c0,0.59,0.1,1.14,0.3,1.65c0.2,0.51,0.48,0.96,0.84,1.34c0.36,0.39,0.78,0.69,1.26,0.9c0.48,0.22,1.01,0.33,1.59,0.33
		c0.7,0,1.32-0.15,1.86-0.46c0.54-0.31,1.03-0.69,1.46-1.16l1.03,0.97c-0.55,0.62-1.17,1.12-1.86,1.51S282.5,234.29,281.48,234.29z"
		/>
</g>
</svg>
